<?xml version="1.0" encoding="UTF-8" standalone="no"?>
<!-- Generator: Fusion 360, Shaper Origin Export Add-In, Version 1.5.0  -->

<svg
   enable-background="new 0 0 22 13"
   height="13cm"
   shaper:fusionaddin="version:1.5.0"
   version="1.1"
   viewBox="0 0 22 13"
   width="22cm"
   x="0cm"
   xml:space="preserve"
   y="0cm"
   id="svg48"
   sodipodi:docname="line-following-robot-frame.svg"
   inkscape:version="1.1.1 (eb90963e84, 2021-10-02)"
   xmlns:inkscape="http://www.inkscape.org/namespaces/inkscape"
   xmlns:sodipodi="http://sodipodi.sourceforge.net/DTD/sodipodi-0.dtd"
   xmlns="http://www.w3.org/2000/svg"
   xmlns:svg="http://www.w3.org/2000/svg"
   xmlns:shaper="http://www.shapertools.com/namespaces/shaper"><defs
     id="defs52" /><sodipodi:namedview
     id="namedview50"
     pagecolor="#ffffff"
     bordercolor="#666666"
     borderopacity="1.0"
     inkscape:pageshadow="2"
     inkscape:pageopacity="0.0"
     inkscape:pagecheckerboard="0"
     inkscape:document-units="cm"
     showgrid="false"
     inkscape:zoom="1.4633494"
     inkscape:cx="415.82688"
     inkscape:cy="245.66929"
     inkscape:window-width="1920"
     inkscape:window-height="970"
     inkscape:window-x="0"
     inkscape:window-y="27"
     inkscape:window-maximized="1"
     inkscape:current-layer="svg48" /><path
     d="M0,0 L17.5,0 A6.9444444,6.9444444 290.6096929 0,1 17.5,13 L0,13 0,0z"
     fill="rgb(0,0,0)"
     shaper:cutDepth="0"
     shaper:pathType="exterior"
     transform="matrix(1,0,0,-1,-0,13)"
     vector-effect="non-scaling-stroke"
     id="path2"
     style="fill:none;stroke:#000000" /><path
     d="M13.99,12.4701743 a0.15,0.15 0 1,1 0.3,0 a0.15,0.15 0 1,1 -0.3,0z"
     fill="rgb(255,255,255)"
     shaper:cutDepth="0"
     shaper:pathType="interior"
     stroke="rgb(0,0,0)"
     transform="matrix(1,0,0,-1,-0,13)"
     vector-effect="non-scaling-stroke"
     id="path4"
     style="fill:none;stroke:#000000" /><path
     d="M10.29,12.4701743 a0.15,0.15 0 1,1 0.3,0 a0.15,0.15 0 1,1 -0.3,0z"
     fill="rgb(255,255,255)"
     shaper:cutDepth="0"
     shaper:pathType="interior"
     stroke="rgb(0,0,0)"
     transform="matrix(1,0,0,-1,-0,13)"
     vector-effect="non-scaling-stroke"
     id="path6"
     style="fill:none;stroke:#000000" /><path
     d="M14.84,9.5201743 L14.84,10.5201743 A0.2,0.2 180 0,0 15.24,10.5201743 L15.24,9.5201743 A0.2,0.2 0 0,0 14.84,9.5201743z"
     fill="rgb(255,255,255)"
     shaper:cutDepth="0"
     shaper:pathType="interior"
     stroke="rgb(0,0,0)"
     transform="matrix(1,0,0,-1,-0,13)"
     vector-effect="non-scaling-stroke"
     id="path8"
     style="fill:none;stroke:#000000" /><path
     d="M9.74,10.5201743 L9.74,9.5201743 A0.2,0.2 0 0,0 9.34,9.5201743 L9.34,10.5201743 A0.2,0.2 180 0,0 9.74,10.5201743z"
     fill="rgb(255,255,255)"
     shaper:cutDepth="0"
     shaper:pathType="interior"
     stroke="rgb(0,0,0)"
     transform="matrix(1,0,0,-1,-0,13)"
     vector-effect="non-scaling-stroke"
     id="path10"
     style="fill:none;stroke:#000000" /><path
     d="M6.85,10.6475 a0.16,0.16 0 1,1 0.32,0 a0.16,0.16 0 1,1 -0.32,0z"
     fill="rgb(255,255,255)"
     shaper:cutDepth="0"
     shaper:pathType="interior"
     stroke="rgb(0,0,0)"
     transform="matrix(1,0,0,-1,-0,13)"
     vector-effect="non-scaling-stroke"
     id="path12"
     style="fill:none;stroke:#000000" /><path
     d="M6.85,2.3525 a0.16,0.16 0 1,1 0.32,0 a0.16,0.16 0 1,1 -0.32,0z"
     fill="rgb(255,255,255)"
     shaper:cutDepth="0"
     shaper:pathType="interior"
     stroke="rgb(0,0,0)"
     transform="matrix(1,0,0,-1,-0,13)"
     vector-effect="non-scaling-stroke"
     id="path14"
     style="fill:none;stroke:#000000" /><path
     d="M6.05,2.3525 a0.16,0.16 0 1,1 0.32,0 a0.16,0.16 0 1,1 -0.32,0z"
     fill="rgb(255,255,255)"
     shaper:cutDepth="0"
     shaper:pathType="interior"
     stroke="rgb(0,0,0)"
     transform="matrix(1,0,0,-1,-0,13)"
     vector-effect="non-scaling-stroke"
     id="path16"
     style="fill:none;stroke:#000000" /><path
     d="M6.05,10.6475 a0.16,0.16 0 1,1 0.32,0 a0.16,0.16 0 1,1 -0.32,0z"
     fill="rgb(255,255,255)"
     shaper:cutDepth="0"
     shaper:pathType="interior"
     stroke="rgb(0,0,0)"
     transform="matrix(1,0,0,-1,-0,13)"
     vector-effect="non-scaling-stroke"
     id="path18"
     style="fill:none;stroke:#000000" /><path
     d="M19.34,4.075 a0.16,0.16 0 1,1 0.32,0 a0.16,0.16 0 1,1 -0.32,0z"
     fill="rgb(255,255,255)"
     shaper:cutDepth="0"
     shaper:pathType="interior"
     stroke="rgb(0,0,0)"
     transform="matrix(1,0,0,-1,-0,13)"
     vector-effect="non-scaling-stroke"
     id="path20"
     style="fill:none;stroke:#000000" /><path
     d="M19.34,8.925 a0.16,0.16 0 1,1 0.32,0 a0.16,0.16 0 1,1 -0.32,0z"
     fill="rgb(255,255,255)"
     shaper:cutDepth="0"
     shaper:pathType="interior"
     stroke="rgb(0,0,0)"
     transform="matrix(1,0,0,-1,-0,13)"
     vector-effect="non-scaling-stroke"
     id="path22"
     style="fill:none;stroke:#000000" /><path
     d="M19.34,10.625 a0.16,0.16 0 1,1 0.32,0 a0.16,0.16 0 1,1 -0.32,0z"
     fill="rgb(255,255,255)"
     shaper:cutDepth="0"
     shaper:pathType="interior"
     stroke="rgb(0,0,0)"
     transform="matrix(1,0,0,-1,-0,13)"
     vector-effect="non-scaling-stroke"
     id="path24"
     style="fill:none;stroke:#000000" /><path
     d="M19.34,2.375 a0.16,0.16 0 1,1 0.32,0 a0.16,0.16 0 1,1 -0.32,0z"
     fill="rgb(255,255,255)"
     shaper:cutDepth="0"
     shaper:pathType="interior"
     stroke="rgb(0,0,0)"
     transform="matrix(1,0,0,-1,-0,13)"
     vector-effect="non-scaling-stroke"
     id="path26"
     style="fill:none;stroke:#000000" /><path
     d="M16.4875,5.3025 a0.21,0.21 0 1,1 0.42,0 a0.21,0.21 0 1,1 -0.42,0z"
     fill="rgb(255,255,255)"
     shaper:cutDepth="0"
     shaper:pathType="interior"
     stroke="rgb(0,0,0)"
     transform="matrix(1,0,0,-1,-0,13)"
     vector-effect="non-scaling-stroke"
     id="path28"
     style="fill:none;stroke:#000000" /><path
     d="M16.4875,7.6975 a0.21,0.21 0 1,1 0.42,0 a0.21,0.21 0 1,1 -0.42,0z"
     fill="rgb(255,255,255)"
     shaper:cutDepth="0"
     shaper:pathType="interior"
     stroke="rgb(0,0,0)"
     transform="matrix(1,0,0,-1,-0,13)"
     vector-effect="non-scaling-stroke"
     id="path30"
     style="fill:none;stroke:#000000" /><path
     d="M13.4925,5.3025 a0.21,0.21 0 1,1 0.42,0 a0.21,0.21 0 1,1 -0.42,0z"
     fill="rgb(255,255,255)"
     shaper:cutDepth="0"
     shaper:pathType="interior"
     stroke="rgb(0,0,0)"
     transform="matrix(1,0,0,-1,-0,13)"
     vector-effect="non-scaling-stroke"
     id="path32"
     style="fill:none;stroke:#000000" /><path
     d="M13.4925,7.6975 a0.21,0.21 0 1,1 0.42,0 a0.21,0.21 0 1,1 -0.42,0z"
     fill="rgb(255,255,255)"
     shaper:cutDepth="0"
     shaper:pathType="interior"
     stroke="rgb(0,0,0)"
     transform="matrix(1,0,0,-1,-0,13)"
     vector-effect="non-scaling-stroke"
     id="path34"
     style="fill:none;stroke:#000000" /><path
     d="M13.99,8.7701743 a0.15,0.15 0 1,1 0.3,0 a0.15,0.15 0 1,1 -0.3,0z"
     fill="rgb(255,255,255)"
     shaper:cutDepth="0"
     shaper:pathType="interior"
     stroke="rgb(0,0,0)"
     transform="matrix(1,0,0,-1,-0,13)"
     vector-effect="non-scaling-stroke"
     id="path36"
     style="fill:none;stroke:#000000" /><path
     d="M10.29,8.7701743 a0.15,0.15 0 1,1 0.3,0 a0.15,0.15 0 1,1 -0.3,0z"
     fill="rgb(255,255,255)"
     shaper:cutDepth="0"
     shaper:pathType="interior"
     stroke="rgb(0,0,0)"
     transform="matrix(1,0,0,-1,-0,13)"
     vector-effect="non-scaling-stroke"
     id="path38"
     style="fill:none;stroke:#000000" /><path
     d="M12.53,2.03 a0.16,0.16 0 1,1 0.32,0 a0.16,0.16 0 1,1 -0.32,0z"
     fill="rgb(255,255,255)"
     shaper:cutDepth="0"
     shaper:pathType="interior"
     stroke="rgb(0,0,0)"
     transform="matrix(1,0,0,-1,-0,13)"
     vector-effect="non-scaling-stroke"
     id="path40"
     style="fill:none;stroke:#000000" /><path
     d="M12.06,7.22 a0.16,0.16 0 1,1 0.32,0 a0.16,0.16 0 1,1 -0.32,0z"
     fill="rgb(255,255,255)"
     shaper:cutDepth="0"
     shaper:pathType="interior"
     stroke="rgb(0,0,0)"
     transform="matrix(1,0,0,-1,-0,13)"
     vector-effect="non-scaling-stroke"
     id="path42"
     style="fill:none;stroke:#000000" /><path
     d="M9.27,7.22 a0.16,0.16 0 1,1 0.32,0 a0.16,0.16 0 1,1 -0.32,0z"
     fill="rgb(255,255,255)"
     shaper:cutDepth="0"
     shaper:pathType="interior"
     stroke="rgb(0,0,0)"
     transform="matrix(1,0,0,-1,-0,13)"
     vector-effect="non-scaling-stroke"
     id="path44"
     style="fill:none;stroke:#000000" /><path
     d="M21.2817493,5.561 A0.2,0.2 0 0,0 20.8817493,5.561 L20.8817493,7.439 A0.2,0.2 180 0,0 21.2817493,7.439 L21.2817493,5.561z"
     fill="rgb(255,255,255)"
     shaper:cutDepth="0"
     shaper:pathType="interior"
     stroke="rgb(0,0,0)"
     transform="matrix(1,0,0,-1,-0,13)"
     vector-effect="non-scaling-stroke"
     id="path46"
     style="fill:none;stroke:#000000" /></svg>
